/* XPM */
static char * aptcoin_sq_64x64_xpm[] = {
"64 64 2 1",
" 	c None",
".	c #0071BC",
"                                                                ",
"                                                                ",
"                            ........                            ",
"                       ..................                       ",
"                     ......          ......                     ",
"                  .....                  ....                   ",
"                ....      ............     ....                 ",
"               ...    ...................    ....               ",
"              ...   ........................   ...              ",
"            ...    ..........................   ...             ",
"           ...   ..............................   ..            ",
"          ...  .................................   ..           ",
"         ...  ...................................   ..          ",
"         ..  .....................................   ..         ",
"        ..  .......................................   ..        ",
"       ..  .........................................  ...       ",
"      ...  ..........................................  ..       ",
"      ..  ............................................  ..      ",
"     ..   ............................................  ..      ",
"     ..  ..............................................  ..     ",
"    ..  ...................         .................... ..     ",
"    ..  .................     ...     ..................  ..    ",
"    .. .................   ..........   ................  ..    ",
"   ..  ................  ....      ...   ................ ..    ",
"   ..  ...............  ...          ...  ...............  ..   ",
"   .. ...............  ...            ..  ...............  ..   ",
"   .. ...............  ..              ..  ..............  ..   ",
"  ..  ..............  ..                .. ............... ..   ",
"  ..  ..............  .                 ..  ..............  .   ",
"  ..  .............. ..                 ..  ..............  .   ",
"  ..  .............  ..                 ..  ..............  .   ",
"  ..  .............  ..                  .. ..............  .   ",
"  ..  .............  ..                  .. ..............  .   ",
"  ..  .............  ..                  .. ..............  .   ",
"  ..  .............. ..                  .. ..............  .   ",
"  ..  ..............  ..                 .. ..............  .   ",
"  ..  ..............  ..                 .. ..............  .   ",
"   .. ...............  ..                .. ..............  .   ",
"   .. ...............  ...               .. ..............  .   ",
"   ..  ...............  ...              .. ..............  .   ",
"   ..  ................  ....           ... ..............  .   ",
"    .. .................   ................ ..............  .   ",
"    ..  .................     ............  ..............  .   ",
"     .. ...................                 ..............  .   ",
"     ..  .................................................  .   ",
"      ..  ................................................  .   ",
"      ..  ................................................  .   ",
"       ..  ...............................................  .   ",
"       ...  ..............................................  .   ",
"        ..   .............................................  .   ",
"         ..   ............................................  .   ",
"          ..   ...........................................  .   ",
"          ...   ..........................................  .   ",
"           ...   .........................................  .   ",
"            ....   .......................................  .   ",
"              ...   ......................................  .   ",
"               ....    ...................................  .   ",
"                 ....     ................................  .   ",
"                   ....                                     .   ",
"                     ......                                 .   ",
"                       ......................................   ",
"                               ..............................   ",
"                                                                ",
"                                                                "};
