/* XPM */
static char * aptcoin_sq_128x128_xpm[] = {
"128 128 2 1",
" 	c None",
".	c #0071BC",
"                                                                                                                                ",
"                                                                                                                                ",
"                                                                                                                                ",
"                                                                                                                                ",
"                                                                                                                                ",
"                                                      ....................                                                      ",
"                                                ...............................                                                 ",
"                                             ......................................                                             ",
"                                          ..............               ..............                                           ",
"                                        ...........                         ...........                                         ",
"                                      .........                                 ..........                                      ",
"                                    ........                                       .........                                    ",
"                                  ........            ...................             ........                                  ",
"                                ........          ............................          .......                                 ",
"                               .......         ..................................         .......                               ",
"                             .......        ........................................        ......                              ",
"                            .......       ............................................       .......                            ",
"                           ......       ................................................       ......                           ",
"                         .......      ....................................................      ......                          ",
"                        ......      ........................................................      .....                         ",
"                       ......      ..........................................................      .....                        ",
"                      ......     ..............................................................     .....                       ",
"                     ......     ................................................................     .....                      ",
"                    .....     ...................................................................     .....                     ",
"                   .....     .....................................................................     .....                    ",
"                  .....     .......................................................................     .....                   ",
"                  .....    .........................................................................     .....                  ",
"                 .....    ............................................................................    .....                 ",
"                .....    ..............................................................................    ....                 ",
"               .....    ...............................................................................     ....                ",
"               ....    .................................................................................    .....               ",
"              .....    ..................................................................................    ....               ",
"             .....    ....................................................................................    ....              ",
"             ....    ......................................................................................    ....             ",
"            .....   .......................................................................................    ....             ",
"            ....    ........................................................................................    ....            ",
"           ....    .........................................................................................    ....            ",
"           ....    ..........................................................................................    ....           ",
"          ....    ............................................................................................   ....           ",
"          ....    ............................................   .............................................    ....          ",
"         ....    .......................................                .......................................   ....          ",
"         ....   .....................................                     .....................................    ....         ",
"        ....    ...................................                         ....................................   ....         ",
"        ....   ...................................        ...........        ...................................    ...         ",
"       ....    .................................       ..................      .................................    ....        ",
"       ....    ................................      ......................     .................................   ....        ",
"       ....   ................................     ..........      .........     ................................    ...        ",
"       ...    ...............................     .......             .......     ................................   ....       ",
"      ....    ..............................     ......                 .......    ...............................   ....       ",
"      ....   ..............................     .....                     ......    ..............................    ...       ",
"      ....   ..............................    .....                       .....     ..............................   ...       ",
"      ...    .............................    .....                         .....    ..............................   ....      ",
"     ....    ............................    .....                           .....    .............................   ....      ",
"     ....   .............................    ....                             ....    .............................    ...      ",
"     ....   .............................   ....                               ....    ............................    ...      ",
"     ....   ............................    ....                               ....    ............................    ...      ",
"     ....   ............................   ....                                 ....   .............................   ....     ",
"     ...    ............................   ....                                 ....    ............................   ....     ",
"     ...    ...........................    ....                                  ...    ............................   ....     ",
"    ....   ............................    ...                                   ....   ............................   ....     ",
"    ....   ............................    ...                                   ....   ............................   ....     ",
"    ....   ............................   ....                                   ....   ............................   ....     ",
"    ....   ............................   ....                                   ....   ............................   ....     ",
"    ....   ............................   ....                                   ....   ............................   ....     ",
"    ....   ............................   ....                                   ....   ............................   ....     ",
"    ....   ............................   ....                                   ....   ............................   ....     ",
"    ....   ............................   ....                                   ....   ............................   ....     ",
"    ....   ............................    ...                                   ....   ............................   ....     ",
"     ...    ...........................    ...                                   ....   ............................   ....     ",
"     ...    ............................   ....                                  ....   ............................   ....     ",
"     ...    ............................   ....                                  ....   ............................   ....     ",
"     ....   ............................    ...                                  ....   ............................   ....     ",
"     ....   ............................    ....                                 ....   ............................   ....     ",
"     ....   .............................   ....                                 ....   ............................   ....     ",
"     ....   .............................    ....                                ....   ............................   ....     ",
"      ...    .............................   .....                               ....   ............................   ....     ",
"      ....   .............................    .....                              ....   ............................   ....     ",
"      ....   ..............................    .....                             ....   ............................   ....     ",
"      ....    ..............................    .....                            ....   ............................   ....     ",
"      ....    ..............................     ......                          ....   ............................   ....     ",
"       ....   ...............................     .......                        ....   ............................   ....     ",
"       ....   ................................     .........                     ....   ............................   ....     ",
"       ....    ................................      ................................   ............................   ....     ",
"        ....   .................................       ..............................   ............................   ....     ",
"        ....    .................................         ...........................   ............................   ....     ",
"        .....   ...................................                                     ............................   ....     ",
"         ....    ....................................                                   ............................   ....     ",
"         .....   .......................................                                ............................   ....     ",
"          ....    .........................................                             ............................   ....     ",
"          ....    ..................................................................................................   ....     ",
"           ....    .................................................................................................   ....     ",
"           ....    .................................................................................................   ....     ",
"            ....    ................................................................................................   ....     ",
"            .....    ...............................................................................................   ....     ",
"             ....    ...............................................................................................   ....     ",
"              ....    ..............................................................................................   ....     ",
"              .....    .............................................................................................   ....     ",
"               ....     ............................................................................................   ....     ",
"               .....     ...........................................................................................   ....     ",
"                .....     ..........................................................................................   ....     ",
"                 .....    ..........................................................................................   ....     ",
"                  .....    .........................................................................................   ....     ",
"                   .....    ........................................................................................   ....     ",
"                   ......     ......................................................................................   ....     ",
"                    ......     .....................................................................................   ....     ",
"                     ......     ....................................................................................   ....     ",
"                      ......     ...................................................................................   ....     ",
"                       ......      .................................................................................   ....     ",
"                        .......      ...............................................................................   ....     ",
"                          ......      ..............................................................................   ....     ",
"                           ......       ............................................................................   ....     ",
"                            .......       ..........................................................................   ....     ",
"                              .......       ........................................................................   ....     ",
"                               ........        .....................................................................   ....     ",
"                                ........          ..................................................................   ....     ",
"                                  .........            .............................................................   ....     ",
"                                    ..........                                                                         ....     ",
"                                      ..........                                                                       ....     ",
"                                        ............                                                                   ....     ",
"                                           ................                                                            ....     ",
"                                              .............................................................................     ",
"                                                 ..........................................................................     ",
"                                                      .....................................................................     ",
"                                                                                                                                ",
"                                                                                                                                ",
"                                                                                                                                ",
"                                                                                                                                ",
"                                                                                                                                "};
