/* XPM */
static char * aptcoin_sq_32x32_xpm[] = {
"32 32 2 1",
" 	c None",
".	c #0071BC",
"                                ",
"             ......             ",
"         ...        ..          ",
"        ..  ........  ..        ",
"      ..  ............  .       ",
"     .. ................ .      ",
"    .. .................. .     ",
"    . .................... .    ",
"   . ...................... .   ",
"  .. ...................... .   ",
"  . .........      ......... .  ",
"  . .......  ..  .. ........ .  ",
"   ........ .      . ....... .  ",
" . ....... .       .. ....... . ",
" . ....... .        . ....... . ",
" . .......          . ....... . ",
" . .......          . ....... . ",
" . ....... .        . ....... . ",
" . ....... .        . ....... . ",
"   ........ .       . ....... . ",
"  . ........ ........ ....... . ",
"  . .........         ....... . ",
"   . ........................ . ",
"   . ........................ . ",
"    . ....................... . ",
"     . ...................... . ",
"     .. ..................... . ",
"       .  ................... . ",
"        ..  ................. . ",
"          ..                  . ",
"            ................... ",
"                                "};
